<svg width="1280" height="360" viewBox="0 0 1280 360" fill="none" xmlns="http://www.w3.org/2000/svg">
  <defs>
    <linearGradient id="sunsetPop" x1="0.05" y1="0.05" x2="0.95" y2="0.95">
      <stop offset="0" stop-color="#FF5E62"/>
      <stop offset="0.5" stop-color="#FF2D8E"/>
      <stop offset="1" stop-color="#8B2FE0"/>
    </linearGradient>
    <linearGradient id="cardCoral" x1="0" y1="0" x2="1" y2="1">
      <stop offset="0" stop-color="#FF8A4B"/>
      <stop offset="1" stop-color="#FF5E62"/>
    </linearGradient>
    <linearGradient id="cardPink" x1="0" y1="0" x2="1" y2="1">
      <stop offset="0" stop-color="#FF5E62"/>
      <stop offset="1" stop-color="#FF2D8E"/>
    </linearGradient>
    <linearGradient id="cardMagenta" x1="0" y1="0" x2="1" y2="1">
      <stop offset="0" stop-color="#FF2D8E"/>
      <stop offset="1" stop-color="#B330CE"/>
    </linearGradient>
    <linearGradient id="cardViolet" x1="0" y1="0" x2="1" y2="1">
      <stop offset="0" stop-color="#B330CE"/>
      <stop offset="1" stop-color="#8B2FE0"/>
    </linearGradient>
    <linearGradient id="dotGrad" x1="0" y1="0" x2="1" y2="1">
      <stop offset="0" stop-color="#FF5E62"/>
      <stop offset="0.5" stop-color="#FF2D8E"/>
      <stop offset="1" stop-color="#8B2FE0"/>
    </linearGradient>
  </defs>

  <g transform="translate(190 184) scale(0.62)">
    <g transform="rotate(-66)">
      <rect x="-66" y="-180" width="132" height="180" rx="28" ry="28" fill="none" stroke="url(#cardCoral)" stroke-width="17"/>
    </g>
    <g transform="rotate(-49)">
      <rect x="-66" y="-180" width="132" height="180" rx="28" ry="28" fill="none" stroke="url(#cardPink)" stroke-width="17"/>
    </g>
    <g transform="rotate(-32)">
      <rect x="-66" y="-180" width="132" height="180" rx="28" ry="28" fill="none" stroke="url(#cardMagenta)" stroke-width="17"/>
    </g>
    <g transform="rotate(-15)">
      <rect x="-66" y="-180" width="132" height="180" rx="28" ry="28" fill="none" stroke="url(#cardViolet)" stroke-width="17"/>
    </g>
    <g transform="rotate(4)">
      <rect x="-70" y="-188" width="140" height="188" rx="30" ry="30" fill="url(#sunsetPop)"/>
    </g>
  </g>

  <text x="350" y="246" font-family="Manrope, 'Helvetica Neue', Arial, sans-serif" font-size="200" font-weight="800" letter-spacing="-8" fill="#1A1421">Recap<tspan fill="url(#dotGrad)">d</tspan></text>
</svg>
